<svg width="48" height="48" viewBox="0 0 48 48" fill="none" xmlns="http://www.w3.org/2000/svg">
<path d="M43.5 18.375C43.9125 18.375 44.25 18.0375 44.25 17.625V9C44.25 8.5875 43.9125 8.25 43.5 8.25H34.875C34.4625 8.25 34.125 8.5875 34.125 9V11.625H13.875V9C13.875 8.5875 13.5375 8.25 13.125 8.25H4.5C4.0875 8.25 3.75 8.5875 3.75 9V17.625C3.75 18.0375 4.0875 18.375 4.5 18.375H7.125V29.625H4.5C4.0875 29.625 3.75 29.9625 3.75 30.375V39C3.75 39.4125 4.0875 39.75 4.5 39.75H13.125C13.5375 39.75 13.875 39.4125 13.875 39V36.375H34.125V39C34.125 39.4125 34.4625 39.75 34.875 39.75H43.5C43.9125 39.75 44.25 39.4125 44.25 39V30.375C44.25 29.9625 43.9125 29.625 43.5 29.625H40.875V18.375H43.5ZM37.125 11.25H41.25V15.375H37.125V11.25ZM6.75 15.375V11.25H10.875V15.375H6.75ZM10.875 36.75H6.75V32.625H10.875V36.75ZM41.25 32.625V36.75H37.125V32.625H41.25ZM37.5 29.625H34.875C34.4625 29.625 34.125 29.9625 34.125 30.375V33H13.875V30.375C13.875 29.9625 13.5375 29.625 13.125 29.625H10.5V18.375H13.125C13.5375 18.375 13.875 18.0375 13.875 17.625V15H34.125V17.625C34.125 18.0375 34.4625 18.375 34.875 18.375H37.5V29.625Z" fill="#145DA0"/>
</svg>
