<svg width="48" height="48" viewBox="0 0 48 48" fill="none" xmlns="http://www.w3.org/2000/svg">
<path d="M14.4887 25.9828C14.2355 26.5266 14.2355 27.15 14.4887 27.6891C16.5605 32.0625 19.7621 34.3125 24.023 34.3125C28.284 34.3125 31.4855 32.0578 33.5574 27.6891C33.8105 27.15 33.8105 26.5266 33.5621 25.9875L33.5574 25.9828L33.5527 25.9781C31.4855 21.6094 28.284 19.3594 24.023 19.3594C19.7621 19.3594 16.5605 21.6141 14.4887 25.9828ZM24.023 22.3594C26.934 22.3594 29.0574 23.7656 30.6371 26.8359C29.0621 29.9062 26.934 31.3125 24.023 31.3125C21.1121 31.3125 18.9887 29.9062 17.409 26.8359C18.9887 23.7656 21.1121 22.3594 24.023 22.3594Z" fill="#145DA0"/>
<path d="M21.4219 26.8594C21.4219 27.5556 21.6984 28.2232 22.1907 28.7155C22.683 29.2078 23.3507 29.4844 24.0469 29.4844C24.7431 29.4844 25.4107 29.2078 25.903 28.7155C26.3953 28.2232 26.6719 27.5556 26.6719 26.8594C26.6719 26.1632 26.3953 25.4955 25.903 25.0032C25.4107 24.5109 24.7431 24.2344 24.0469 24.2344C23.3507 24.2344 22.683 24.5109 22.1907 25.0032C21.6984 25.4955 21.4219 26.1632 21.4219 26.8594Z" fill="#145DA0"/>
<path d="M41.25 13.9875H24.4219L18.9234 8.72812C18.8531 8.6625 18.7594 8.625 18.6656 8.625H6.75C5.92031 8.625 5.25 9.29531 5.25 10.125V37.875C5.25 38.7047 5.92031 39.375 6.75 39.375H41.25C42.0797 39.375 42.75 38.7047 42.75 37.875V15.4875C42.75 14.6578 42.0797 13.9875 41.25 13.9875ZM39.375 36H8.625V12H17.4609L23.0672 17.3625H39.375V36Z" fill="#145DA0"/>
</svg>
