<svg width="48" height="48" viewBox="0 0 48 48" fill="none" xmlns="http://www.w3.org/2000/svg">
<path d="M38.6345 32.8078C37.4612 31.6336 36.0902 30.6752 34.5845 29.9766C36.7079 28.2563 38.0626 25.6313 38.0626 22.6875C38.0626 17.4938 33.7314 13.2328 28.5376 13.3125C23.4236 13.3922 19.3032 17.5594 19.3032 22.6875C19.3032 25.6313 20.6626 28.2563 22.7814 29.9766C21.2753 30.6747 19.9043 31.6332 18.7314 32.8078C16.172 35.3719 14.7189 38.7562 14.6251 42.3656C14.6239 42.4157 14.6326 42.4654 14.6509 42.512C14.6692 42.5586 14.6966 42.6011 14.7316 42.6369C14.7665 42.6727 14.8083 42.7012 14.8544 42.7206C14.9005 42.74 14.9501 42.75 15.0001 42.75H17.6251C17.8267 42.75 17.9954 42.5906 18.0001 42.3891C18.0892 39.6703 19.1907 37.125 21.1267 35.1937C22.1173 34.1978 23.2957 33.4083 24.5935 32.8708C25.8913 32.3333 27.2829 32.0586 28.6876 32.0625C31.5423 32.0625 34.2282 33.1734 36.2486 35.1937C38.1798 37.125 39.2814 39.6703 39.3751 42.3891C39.3798 42.5906 39.5486 42.75 39.7501 42.75H42.3751C42.4252 42.75 42.4747 42.74 42.5208 42.7206C42.5669 42.7012 42.6087 42.6727 42.6437 42.6369C42.6786 42.6011 42.706 42.5586 42.7243 42.512C42.7426 42.4654 42.7514 42.4157 42.7501 42.3656C42.6564 38.7562 41.2032 35.3719 38.6345 32.8078ZM28.6876 28.6875C27.0845 28.6875 25.5751 28.0641 24.4454 26.9297C23.8785 26.3672 23.4307 25.6963 23.1287 24.957C22.8266 24.2177 22.6767 23.4251 22.6876 22.6266C22.7017 21.0891 23.3157 19.6031 24.3892 18.5016C25.5142 17.3484 27.0189 16.7063 28.6267 16.6875C30.2157 16.6734 31.7579 17.2922 32.8923 18.4031C34.0548 19.5422 34.6923 21.0656 34.6923 22.6875C34.6923 24.2906 34.0689 25.7953 32.9345 26.9297C32.378 27.4889 31.7161 27.9322 30.9871 28.2339C30.2581 28.5356 29.4766 28.6898 28.6876 28.6875ZM16.9454 23.925C16.9032 23.5172 16.8798 23.1047 16.8798 22.6875C16.8798 21.9422 16.9501 21.2156 17.0814 20.5078C17.1142 20.3391 17.0251 20.1656 16.8704 20.0953C16.2329 19.8094 15.647 19.4156 15.1407 18.9188C14.5442 18.3403 14.0748 17.6439 13.7625 16.874C13.4501 16.104 13.3017 15.2774 13.3267 14.4469C13.3689 12.9422 13.9736 11.5125 15.0282 10.4344C16.1861 9.24844 17.7423 8.60156 19.397 8.62031C20.8923 8.63438 22.3361 9.21094 23.4282 10.2328C23.7986 10.5797 24.1173 10.9641 24.3845 11.3766C24.4782 11.5219 24.6611 11.5828 24.8204 11.5266C25.6454 11.2406 26.5173 11.0391 27.4126 10.9453C27.6751 10.9172 27.8251 10.6359 27.7079 10.4016C26.1845 7.3875 23.072 5.30625 19.472 5.25C14.2736 5.17031 9.94231 9.43125 9.94231 14.6203C9.94231 17.5641 11.297 20.1891 13.4204 21.9094C11.9298 22.5984 10.5564 23.55 9.36574 24.7406C6.79699 27.3047 5.34387 30.6891 5.25012 34.3031C5.24887 34.3532 5.25764 34.4029 5.27593 34.4495C5.29421 34.4961 5.32163 34.5386 5.35658 34.5744C5.39153 34.6102 5.43329 34.6387 5.47941 34.6581C5.52553 34.6775 5.57507 34.6875 5.62512 34.6875H8.25481C8.45637 34.6875 8.62512 34.5281 8.62981 34.3266C8.71887 31.6078 9.82043 29.0625 11.7564 27.1313C13.1345 25.7531 14.822 24.7969 16.6642 24.3328C16.847 24.2859 16.9689 24.1125 16.9454 23.925Z" fill="#145DA0"/>
</svg>
