<svg width="48" height="48" viewBox="0 0 48 48" fill="none" xmlns="http://www.w3.org/2000/svg">
<path d="M40.6359 7.96406L24.7078 2.53594C24.5156 2.47031 24.2578 2.4375 24 2.4375C23.7422 2.4375 23.4844 2.47031 23.2922 2.53594L7.36406 7.96406C6.975 8.09531 6.65625 8.54531 6.65625 8.95781V31.5703C6.65625 31.9828 6.92344 32.5266 7.24688 32.7844L23.4047 45.375C23.5687 45.5016 23.7797 45.5672 23.9953 45.5672C24.2109 45.5672 24.4266 45.5016 24.5859 45.375L40.7438 32.7844C41.0672 32.5312 41.3344 31.9875 41.3344 31.5703V8.95781C41.3438 8.54531 41.025 8.1 40.6359 7.96406ZM37.9688 30.6703L24 41.5547L10.0312 30.6703V10.6266L24 5.86406L37.9688 10.6266V30.6703ZM18.9469 21.2484C18.8063 21.0562 18.5813 20.9391 18.3375 20.9391H15.75C15.4453 20.9391 15.2672 21.2859 15.4453 21.5344L21.3703 29.6906C21.4404 29.7865 21.5321 29.8645 21.638 29.9183C21.7438 29.9721 21.8609 30.0001 21.9797 30.0001C22.0984 30.0001 22.2155 29.9721 22.3214 29.9183C22.4273 29.8645 22.519 29.7865 22.5891 29.6906L32.5547 15.9703C32.7328 15.7219 32.5547 15.375 32.25 15.375H29.6625C29.4234 15.375 29.1937 15.4922 29.0531 15.6844L21.9797 25.425L18.9469 21.2484Z" fill="#145DA0"/>
</svg>
