<svg width="38" height="38" viewBox="0 0 38 38" fill="none" xmlns="http://www.w3.org/2000/svg">
<path d="M36.25 0.25H1.75C0.920312 0.25 0.25 0.920312 0.25 1.75V36.25C0.25 37.0797 0.920312 37.75 1.75 37.75H36.25C37.0797 37.75 37.75 37.0797 37.75 36.25V1.75C37.75 0.920312 37.0797 0.25 36.25 0.25ZM13.9375 27.0156V30.625C13.9375 30.8312 13.7688 31 13.5625 31H11.3125C11.1062 31 10.9375 30.8312 10.9375 30.625V27.0156C8.98281 26.3781 7.5625 24.5406 7.5625 22.375C7.5625 20.2094 8.98281 18.3672 10.9375 17.7344V7.375C10.9375 7.16875 11.1062 7 11.3125 7H13.5625C13.7688 7 13.9375 7.16875 13.9375 7.375V17.7344C15.8922 18.3719 17.3125 20.2094 17.3125 22.375C17.3125 24.5406 15.8922 26.3828 13.9375 27.0156ZM27.0437 20.2703C27.0531 20.2703 27.0578 20.2656 27.0625 20.2656V30.625C27.0625 30.8312 26.8937 31 26.6875 31H24.4375C24.2313 31 24.0625 30.8312 24.0625 30.625V20.2656C24.0719 20.2656 24.0766 20.2703 24.0813 20.2703C22.1125 19.6422 20.6875 17.8 20.6875 15.625C20.6875 13.45 22.1125 11.6078 24.0813 10.9797C24.0719 10.9797 24.0672 10.9844 24.0625 10.9844V7.375C24.0625 7.16875 24.2313 7 24.4375 7H26.6875C26.8937 7 27.0625 7.16875 27.0625 7.375V10.9844C27.0531 10.9844 27.0484 10.9797 27.0437 10.9797C29.0125 11.6078 30.4375 13.45 30.4375 15.625C30.4375 17.8 29.0125 19.6422 27.0437 20.2703ZM23.875 15.625C23.875 16.0726 24.0528 16.5018 24.3693 16.8182C24.6857 17.1347 25.1149 17.3125 25.5625 17.3125C26.0101 17.3125 26.4393 17.1347 26.7557 16.8182C27.0722 16.5018 27.25 16.0726 27.25 15.625C27.25 15.1774 27.0722 14.7482 26.7557 14.4318C26.4393 14.1153 26.0101 13.9375 25.5625 13.9375C25.1149 13.9375 24.6857 14.1153 24.3693 14.4318C24.0528 14.7482 23.875 15.1774 23.875 15.625ZM13.9094 21.5547L13.8391 21.4422C13.8391 21.4375 13.8344 21.4375 13.8344 21.4328L13.7922 21.3766C13.7875 21.3719 13.7828 21.3672 13.7828 21.3625C13.7359 21.3016 13.6891 21.2453 13.6328 21.1937L13.6234 21.1844C13.6047 21.1656 13.5859 21.1469 13.5672 21.1328C13.5297 21.0953 13.4875 21.0625 13.4453 21.0344H13.4406L13.3844 20.9922C13.3797 20.9875 13.3703 20.9828 13.3656 20.9781C13.3094 20.9406 13.2484 20.9031 13.1828 20.875C13.1734 20.8703 13.1594 20.8656 13.15 20.8562C13.1313 20.8469 13.1172 20.8422 13.0984 20.8328C13.0844 20.8281 13.0656 20.8188 13.0516 20.8141C13.0281 20.8047 13.0047 20.7953 12.9813 20.7906C12.9625 20.7859 12.9391 20.7766 12.9203 20.7719L12.8781 20.7578L12.8125 20.7438C12.8031 20.7391 12.7891 20.7391 12.7797 20.7344C12.7469 20.7297 12.7141 20.7203 12.6813 20.7156C12.6719 20.7156 12.6625 20.7156 12.6531 20.7109C12.625 20.7062 12.6016 20.7062 12.5734 20.7016C12.5641 20.7016 12.5547 20.7016 12.5406 20.6969C12.5031 20.6969 12.4703 20.6922 12.4328 20.6922C12.3953 20.6922 12.3625 20.6922 12.325 20.6969C12.3156 20.6969 12.3062 20.6969 12.2922 20.7016C12.2641 20.7016 12.2359 20.7062 12.2125 20.7109C12.2031 20.7109 12.1938 20.7109 12.1844 20.7156C12.1516 20.7203 12.1187 20.725 12.0859 20.7344C12.0766 20.7391 12.0625 20.7391 12.0531 20.7438L11.9875 20.7578L11.9453 20.7719C11.9266 20.7766 11.9031 20.7859 11.8844 20.7906C11.8609 20.8 11.8375 20.8094 11.8141 20.8141C11.8 20.8188 11.7813 20.8281 11.7672 20.8328C11.7484 20.8422 11.7344 20.8469 11.7156 20.8562C11.7063 20.8609 11.6922 20.8656 11.6828 20.875C11.6219 20.9078 11.5609 20.9406 11.5 20.9781C11.4953 20.9828 11.4859 20.9875 11.4813 20.9922L11.425 21.0344H11.4203C11.3781 21.0672 11.3359 21.1 11.2984 21.1328C11.2797 21.1516 11.2609 21.1656 11.2422 21.1844L11.2328 21.1937C11.1804 21.2478 11.1303 21.3041 11.0828 21.3625C11.0781 21.3672 11.0734 21.3719 11.0734 21.3766L11.0312 21.4328C11.0312 21.4375 11.0266 21.4375 11.0266 21.4422L10.9562 21.5547C10.9516 21.5641 10.9469 21.5688 10.9422 21.5781C10.8156 21.8172 10.7406 22.0891 10.7406 22.375C10.7406 22.6609 10.8156 22.9375 10.9422 23.1719C10.9469 23.1812 10.9516 23.1859 10.9562 23.1953L11.0266 23.3078C11.0266 23.3125 11.0312 23.3125 11.0312 23.3172L11.0734 23.3734C11.0781 23.3781 11.0828 23.3828 11.0828 23.3875C11.1297 23.4484 11.1766 23.5047 11.2328 23.5563L11.2422 23.5656C11.2609 23.5844 11.2797 23.6031 11.2984 23.6172C11.3359 23.6547 11.3781 23.6875 11.4203 23.7156H11.425L11.4813 23.7578C11.4859 23.7625 11.4953 23.7672 11.5 23.7719C11.5562 23.8094 11.6172 23.8469 11.6828 23.875C11.6922 23.8797 11.7063 23.8844 11.7156 23.8938C11.7344 23.9031 11.7484 23.9078 11.7672 23.9172C11.7813 23.9219 11.8 23.9312 11.8141 23.9359C11.8375 23.9453 11.8609 23.9547 11.8844 23.9594C11.9031 23.9641 11.9266 23.9734 11.9453 23.9781L11.9875 23.9922L12.0531 24.0062C12.0625 24.0109 12.0766 24.0109 12.0859 24.0156C12.1187 24.0203 12.1516 24.0297 12.1844 24.0344C12.1938 24.0344 12.2031 24.0344 12.2125 24.0391C12.2406 24.0438 12.2641 24.0438 12.2922 24.0484C12.3016 24.0484 12.3109 24.0484 12.325 24.0531C12.3625 24.0531 12.3953 24.0578 12.4328 24.0578C12.4703 24.0578 12.5031 24.0578 12.5406 24.0531C12.55 24.0531 12.5594 24.0531 12.5734 24.0484C12.6016 24.0484 12.6297 24.0438 12.6531 24.0391C12.6625 24.0391 12.6719 24.0391 12.6813 24.0344C12.7141 24.0297 12.7469 24.025 12.7797 24.0156C12.7891 24.0109 12.8031 24.0109 12.8125 24.0062L12.8781 23.9922L12.9203 23.9781C12.9391 23.9734 12.9625 23.9641 12.9813 23.9594C13.0047 23.95 13.0281 23.9406 13.0516 23.9359C13.0656 23.9312 13.0844 23.9219 13.0984 23.9172C13.1172 23.9078 13.1313 23.9031 13.15 23.8938C13.1594 23.8891 13.1734 23.8844 13.1828 23.875C13.2437 23.8422 13.3047 23.8094 13.3656 23.7719C13.3703 23.7672 13.3797 23.7625 13.3844 23.7578L13.4406 23.7156H13.4453C13.4875 23.6828 13.5297 23.65 13.5672 23.6172C13.5859 23.5984 13.6047 23.5844 13.6234 23.5656L13.6328 23.5563C13.6844 23.5047 13.7359 23.4437 13.7828 23.3875C13.7875 23.3828 13.7922 23.3781 13.7922 23.3734L13.8344 23.3172C13.8344 23.3125 13.8391 23.3125 13.8391 23.3078L13.9094 23.1953C13.9141 23.1859 13.9188 23.1812 13.9234 23.1719C14.05 22.9328 14.125 22.6609 14.125 22.375C14.125 22.0891 14.05 21.8125 13.9234 21.5781C13.9188 21.5688 13.9141 21.5594 13.9094 21.5547Z" fill="#145DA0"/>
</svg>
