<svg width="48" height="48" viewBox="0 0 48 48" fill="none" xmlns="http://www.w3.org/2000/svg">
<path d="M44.8121 32.1797L44.8074 32.175L44.8027 32.1703C42.7355 27.7969 39.534 25.5469 35.273 25.5469C31.0121 25.5469 27.8105 27.8016 25.7387 32.1703V32.175C25.4855 32.7141 25.4855 33.3422 25.7387 33.8812C27.8105 38.25 31.0121 40.5 35.273 40.5C39.534 40.5 42.7355 38.2453 44.8074 33.8766C45.0605 33.3375 45.0605 32.7141 44.8121 32.1797ZM35.273 37.5C32.3621 37.5 30.2387 36.0938 28.659 33.0234C30.234 29.9531 32.3621 28.5469 35.273 28.5469C38.184 28.5469 40.3074 29.9531 41.8871 33.0234C40.3121 36.0938 38.184 37.5 35.273 37.5Z" fill="#145DA0"/>
<path d="M32.6719 33.0469C32.6719 33.7431 32.9484 34.4107 33.4407 34.903C33.933 35.3953 34.6007 35.6719 35.2969 35.6719C35.9931 35.6719 36.6607 35.3953 37.153 34.903C37.6453 34.4107 37.9219 33.7431 37.9219 33.0469C37.9219 32.3507 37.6453 31.683 37.153 31.1907C36.6607 30.6984 35.9931 30.4219 35.2969 30.4219C34.6007 30.4219 33.933 30.6984 33.4407 31.1907C32.9484 31.683 32.6719 32.3507 32.6719 33.0469ZM6.375 10.875H39.375V22.7344H42.75V9C42.75 8.17031 42.0797 7.5 41.25 7.5H4.5C3.67031 7.5 3 8.17031 3 9V33.375C3 34.2047 3.67031 34.875 4.5 34.875H21V31.5H6.375V10.875Z" fill="#145DA0"/>
<path d="M33.9789 15.8484L32.2539 14.1234C32.1086 13.9781 31.8695 13.9781 31.7242 14.1234L23.1086 22.7484L19.0727 18.7078C18.9273 18.5625 18.6883 18.5625 18.543 18.7078L11.7789 25.4719C11.6336 25.6172 11.6336 25.8562 11.7789 26.0016L13.5039 27.7266C13.6492 27.8719 13.8883 27.8719 14.0336 27.7266L18.8055 22.9547L22.8414 26.9953C22.9867 27.1406 23.2258 27.1406 23.3711 26.9953L33.9789 16.3781C34.1289 16.2328 34.1289 15.9937 33.9789 15.8484Z" fill="#145DA0"/>
</svg>
