<svg width="48" height="48" viewBox="0 0 48 48" fill="none" xmlns="http://www.w3.org/2000/svg">
<path d="M40.5 34.5C40.5 29.2687 37.4344 24.75 33 22.6453V14.8734C33 14.1656 32.7516 13.4813 32.2922 12.9422L25.1484 4.47188C24.8484 4.11563 24.4219 3.9375 24 3.9375C23.5781 3.9375 23.1516 4.11563 22.8516 4.47188L15.7078 12.9422C15.2516 13.4824 15.0009 14.1664 15 14.8734V22.6453C10.5656 24.75 7.5 29.2687 7.5 34.5H14.8359C14.7281 34.8375 14.6719 35.2031 14.6719 35.6156C14.6719 36.6516 15.0281 37.6641 15.675 38.4656C16.203 39.1212 16.9023 39.6177 17.6953 39.9C18.7781 42.4313 21.2391 44.0625 24 44.0625C25.3641 44.0625 26.6859 43.6594 27.8156 42.9C28.9219 42.1594 29.7797 41.1234 30.3 39.9C31.0927 39.6194 31.792 39.1245 32.3203 38.4703C32.9681 37.6615 33.3218 36.6566 33.3234 35.6203C33.3234 35.2266 33.2719 34.8516 33.1781 34.5047L40.5 34.5ZM24 16.5C24.5888 16.512 25.1494 16.7544 25.5616 17.175C25.9737 17.5956 26.2045 18.1611 26.2045 18.75C26.2045 19.3389 25.9737 19.9044 25.5616 20.325C25.1494 20.7456 24.5888 20.988 24 21C23.4112 20.988 22.8506 20.7456 22.4385 20.325C22.0263 19.9044 21.7955 19.3389 21.7955 18.75C21.7955 18.1611 22.0263 17.5956 22.4385 17.175C22.8506 16.7544 23.4112 16.512 24 16.5ZM29.4422 36.7594C29.1984 36.9 28.9172 36.9562 28.6406 36.9187L27.7266 36.8063L27.5953 37.7156C27.3422 39.4922 25.7953 40.8328 24 40.8328C22.2047 40.8328 20.6578 39.4922 20.4047 37.7156L20.2734 36.8016L19.3594 36.9187C19.0815 36.9519 18.8003 36.8943 18.5578 36.7547C18.15 36.5203 17.8969 36.0844 17.8969 35.6109C17.8969 35.1141 18.1734 34.7016 18.5812 34.4953H29.4234C29.8359 34.7063 30.1078 35.1188 30.1078 35.6109C30.1031 36.0891 29.85 36.5297 29.4422 36.7594Z" fill="#145DA0"/>
</svg>
