<svg width="42" height="38" viewBox="0 0 42 38" fill="none" xmlns="http://www.w3.org/2000/svg">
<path d="M38.6394 27.4938C36.6472 26.3406 34.219 26.65 32.5831 28.0938L30.0987 26.6547V19.5437C30.0987 18.8078 29.705 18.1234 29.0675 17.7578L22.6925 14.0875V10.9422C24.7644 10.2391 26.255 8.27969 26.255 5.96875C26.255 3.06719 23.9065 0.71875 21.005 0.71875C18.1034 0.71875 15.755 3.06719 15.755 5.96875C15.755 8.27969 17.2456 10.2391 19.3175 10.9422V14.0875L12.9425 17.7578C12.305 18.1234 11.9112 18.8078 11.9112 19.5437V26.65L9.42686 28.0891C7.79092 26.6453 5.35811 26.3359 3.37061 27.4891C0.862793 28.9422 0.00966847 32.1484 1.44873 34.6562C2.89248 37.1641 6.08467 38.0266 8.58311 36.5781C10.5753 35.425 11.5222 33.1562 11.0956 31.0094L13.3784 29.6828L19.969 33.4797C20.2878 33.6625 20.644 33.7562 21.0003 33.7562C21.3565 33.7562 21.7128 33.6625 22.0315 33.4797L28.6175 29.6875L30.9003 31.0141C30.4737 33.1562 31.4253 35.4297 33.4128 36.5828C35.9112 38.0312 39.1081 37.1734 40.5472 34.6609C41.9909 32.1484 41.1378 28.9422 38.6394 27.4938ZM7.09248 33.9812C6.83788 34.1287 6.55662 34.2244 6.2649 34.2627C5.97319 34.301 5.67677 34.2813 5.39271 34.2046C5.10865 34.1279 4.84257 33.9958 4.60976 33.8159C4.37696 33.636 4.18205 33.4118 4.03623 33.1562C3.41748 32.0828 3.78311 30.7047 4.85654 30.0859C5.11115 29.9385 5.3924 29.8428 5.68412 29.8045C5.97584 29.7662 6.27225 29.7859 6.55631 29.8626C6.84037 29.9393 7.10646 30.0714 7.33926 30.2513C7.57206 30.4312 7.76698 30.6554 7.91279 30.9109C8.53154 31.9844 8.16592 33.3625 7.09248 33.9812ZM18.7503 5.96875C18.7623 5.37997 19.0046 4.81935 19.4253 4.4072C19.8459 3.99505 20.4114 3.76421 21.0003 3.76421C21.5892 3.76421 22.1546 3.99505 22.5753 4.4072C22.9959 4.81935 23.2383 5.37997 23.2503 5.96875C23.2383 6.55753 22.9959 7.11815 22.5753 7.5303C22.1546 7.94245 21.5892 8.17329 21.0003 8.17329C20.4114 8.17329 19.8459 7.94245 19.4253 7.5303C19.0046 7.11815 18.7623 6.55753 18.7503 5.96875ZM26.719 26.8844L21.0003 30.1797L15.2815 26.8844V20.3031L21.0003 17.0078L26.719 20.3031V26.8844ZM37.9644 33.1609C37.3456 34.2344 35.9769 34.6047 34.9081 33.9859C33.8394 33.3672 33.469 31.9891 34.0878 30.9156C34.7065 29.8422 36.0753 29.4719 37.144 30.0906C38.2175 30.7094 38.5831 32.0828 37.9644 33.1609Z" fill="#145DA0"/>
</svg>
