<svg width="42" height="42" viewBox="0 0 42 42" fill="none" xmlns="http://www.w3.org/2000/svg">
<path d="M37.05 34.5422C37.0594 34.5281 37.0734 34.5141 37.0828 34.5C40.1531 30.8484 42 26.1422 42 21C42 15.8578 40.1531 11.1516 37.0875 7.5C37.0781 7.48594 37.0641 7.47656 37.0547 7.4625C37.0031 7.40156 36.9562 7.34531 36.9047 7.28906C36.8859 7.26562 36.8672 7.24688 36.8484 7.22344L36.6562 7.00312L36.6516 6.99844C36.5813 6.91875 36.5062 6.83906 36.4359 6.75937L36.4313 6.75469C36.2812 6.59531 36.1312 6.43594 35.9766 6.28125L35.9719 6.27656L35.7469 6.05156L35.7328 6.0375C35.6625 5.96719 35.5922 5.90156 35.5219 5.83594C35.4984 5.8125 35.475 5.78906 35.4469 5.76562C35.4 5.71875 35.3531 5.67656 35.3063 5.63437C35.2922 5.62031 35.2734 5.60625 35.2594 5.5875C31.5188 2.11875 26.5078 0 21 0C15.4922 0 10.4812 2.11875 6.73594 5.5875C6.72187 5.60156 6.70312 5.61562 6.68906 5.63437C6.64219 5.67656 6.59531 5.72344 6.54844 5.77031C6.525 5.79375 6.50156 5.81719 6.47344 5.84063C6.40313 5.90625 6.33281 5.97656 6.2625 6.04219L6.24844 6.05625L6.02344 6.28125L6.01875 6.28594C5.86406 6.44063 5.71406 6.6 5.56406 6.75937L5.55938 6.76406C5.48438 6.84375 5.41406 6.92344 5.34375 7.00312L5.33906 7.00781C5.27344 7.07812 5.20781 7.15312 5.14688 7.22812C5.12813 7.25156 5.10938 7.27031 5.09063 7.29375C5.03906 7.35 4.99219 7.41094 4.94062 7.46719C4.93125 7.48125 4.91719 7.49063 4.90781 7.50469C1.84687 11.1516 0 15.8578 0 21C0 26.1422 1.84688 30.8484 4.9125 34.5C4.92188 34.5141 4.93594 34.5281 4.94531 34.5422L5.09063 34.7156C5.10938 34.7391 5.12813 34.7578 5.14688 34.7812L5.33906 35.0016C5.33906 35.0063 5.34375 35.0063 5.34375 35.0109C5.41406 35.0906 5.48438 35.1703 5.55938 35.2453L5.56406 35.25C5.71406 35.4094 5.86406 35.5687 6.01406 35.7234L6.01875 35.7281C6.09375 35.8031 6.16406 35.8781 6.23906 35.9484L6.25312 35.9625C6.40781 36.1172 6.56719 36.2672 6.72656 36.4125C10.4812 39.8812 15.4922 42 21 42C26.5078 42 31.5187 39.8812 35.2641 36.4125C35.4238 36.2661 35.58 36.1161 35.7328 35.9625L35.7469 35.9484C35.8219 35.8734 35.8969 35.8031 35.9672 35.7281L35.9719 35.7234C36.1266 35.5687 36.2766 35.4094 36.4219 35.25L36.4266 35.2453C36.4969 35.1656 36.5719 35.0906 36.6422 35.0109C36.6422 35.0063 36.6469 35.0063 36.6469 35.0016C36.7125 34.9313 36.7781 34.8563 36.8391 34.7812C36.8578 34.7578 36.8766 34.7391 36.8953 34.7156C36.9483 34.6591 36.9999 34.6013 37.05 34.5422ZM37.2422 27.8578C36.5953 29.3859 35.7422 30.8016 34.7016 32.0859C33.5296 31.0731 32.2482 30.1942 30.8812 29.4656C31.425 27.2672 31.7625 24.8531 31.8516 22.3125H38.5781C38.4375 24.2297 37.9875 26.0906 37.2422 27.8578ZM38.5781 19.6875H31.8516C31.7625 17.1469 31.425 14.7328 30.8812 12.5344C32.2547 11.8031 33.5344 10.9219 34.7016 9.91406C36.9636 12.6983 38.3167 16.1097 38.5781 19.6875ZM27.8578 4.75781C29.7188 5.54531 31.4109 6.63281 32.9016 8.00156C32.0356 8.73888 31.1036 9.39478 30.1172 9.96094C29.3813 7.85156 28.4391 6.01875 27.3422 4.55156C27.5156 4.61719 27.6891 4.6875 27.8578 4.75781ZM23.6109 37.5984C23.1797 37.9359 22.7484 38.1937 22.3125 38.3672V29.6719C24.1725 29.8016 26.0015 30.2158 27.7359 30.9C27.3469 32.0531 26.8969 33.1172 26.3766 34.0781C25.5609 35.5969 24.6047 36.8109 23.6109 37.5984ZM26.3766 7.92188C26.8922 8.8875 27.3469 9.95156 27.7359 11.1C26.0015 11.7842 24.1725 12.1984 22.3125 12.3281V3.6375C22.7437 3.81094 23.1797 4.06406 23.6109 4.40625C24.6047 5.18906 25.5609 6.40312 26.3766 7.92188ZM22.3125 27.0422V22.3125H29.2266C29.1516 24.3844 28.8938 26.3953 28.4625 28.3031L28.4484 28.3594C26.4813 27.6134 24.4125 27.1693 22.3125 27.0422ZM22.3125 19.6875V14.9578C24.4594 14.8266 26.5219 14.3719 28.4484 13.6406L28.4625 13.6969C28.8938 15.6047 29.1516 17.6109 29.2266 19.6875H22.3125ZM19.6875 22.3125V27.0422C17.5406 27.1734 15.4781 27.6281 13.5516 28.3594L13.5375 28.3031C13.1062 26.3953 12.8484 24.3891 12.7734 22.3125H19.6875ZM12.7734 19.6875C12.8484 17.6156 13.1062 15.6047 13.5375 13.6969L13.5516 13.6406C15.4781 14.3719 17.5359 14.8266 19.6875 14.9578V19.6875H12.7734ZM19.6875 29.6719V38.3625C19.2563 38.1891 18.8203 37.9359 18.3891 37.5938C17.3953 36.8109 16.4344 35.5922 15.6188 34.0734C15.1031 33.1078 14.6484 32.0437 14.2594 30.8953C16.0031 30.2109 17.8172 29.8031 19.6875 29.6719ZM19.6875 12.3281C17.8275 12.1984 15.9985 11.7842 14.2641 11.1C14.6531 9.94687 15.1031 8.88281 15.6234 7.92188C16.4391 6.40312 17.3953 5.18437 18.3937 4.40156C18.825 4.06406 19.2563 3.80625 19.6922 3.63281V12.3281H19.6875ZM14.1422 4.75781C14.3156 4.6875 14.4844 4.61719 14.6578 4.55156C13.5609 6.01875 12.6187 7.85156 11.8828 9.96094C10.8984 9.39844 9.96563 8.74219 9.09844 8.00156C10.5891 6.63281 12.2813 5.54531 14.1422 4.75781ZM4.75781 14.1422C5.40469 12.6141 6.25781 11.1984 7.29844 9.91406C8.46562 10.9219 9.74531 11.8031 11.1188 12.5344C10.575 14.7328 10.2375 17.1469 10.1484 19.6875H3.42188C3.5625 17.7703 4.0125 15.9094 4.75781 14.1422ZM3.42188 22.3125H10.1484C10.2375 24.8531 10.575 27.2672 11.1188 29.4656C9.75177 30.1942 8.4704 31.0731 7.29844 32.0859C5.03639 29.3017 3.68329 25.8903 3.42188 22.3125ZM14.1422 37.2422C12.2813 36.4547 10.5891 35.3672 9.09844 33.9984C9.96563 33.2578 10.8984 32.6063 11.8828 32.0391C12.6187 34.1484 13.5609 35.9813 14.6578 37.4484C14.4844 37.3828 14.3109 37.3125 14.1422 37.2422ZM27.8578 37.2422C27.6844 37.3125 27.5156 37.3828 27.3422 37.4484C28.4391 35.9813 29.3813 34.1484 30.1172 32.0391C31.1016 32.6016 32.0344 33.2578 32.9016 33.9984C31.4192 35.3615 29.713 36.4588 27.8578 37.2422Z" fill="#145DA0"/>
</svg>
