<svg width="36" height="42" viewBox="0 0 36 42" fill="none" xmlns="http://www.w3.org/2000/svg">
<path d="M18.0007 8.4375C26.2591 8.4375 32.9538 15.1322 32.9538 23.3906V34.3125C32.9538 34.7103 32.7958 35.0919 32.5145 35.3732C32.2332 35.6545 31.8516 35.8125 31.4538 35.8125H4.54756C4.14974 35.8125 3.76821 35.6545 3.4869 35.3732C3.2056 35.0919 3.04756 34.7103 3.04756 34.3125V23.3906C3.04756 15.1322 9.74225 8.4375 18.0007 8.4375ZM16.6882 0.1875H19.3132C19.4126 0.1875 19.508 0.227009 19.5784 0.297335C19.6487 0.367661 19.6882 0.463044 19.6882 0.5625V5.0625C19.6882 5.16196 19.6487 5.25734 19.5784 5.32767C19.508 5.39799 19.4126 5.4375 19.3132 5.4375H16.6882C16.5887 5.4375 16.4933 5.39799 16.423 5.32767C16.3527 5.25734 16.3132 5.16196 16.3132 5.0625V0.5625C16.3132 0.463044 16.3527 0.367661 16.423 0.297335C16.4933 0.227009 16.5887 0.1875 16.6882 0.1875ZM2.30928 5.98406C2.34411 5.9492 2.38546 5.92154 2.43099 5.90267C2.47651 5.88379 2.52531 5.87408 2.57459 5.87408C2.62387 5.87408 2.67267 5.88379 2.71819 5.90267C2.76372 5.92154 2.80508 5.9492 2.8399 5.98406L6.02178 9.16594C6.09205 9.23626 6.13153 9.3316 6.13153 9.43102C6.13153 9.53043 6.09205 9.62578 6.02178 9.69609L4.16553 11.5523C4.09521 11.6226 3.99987 11.6621 3.90045 11.6621C3.80104 11.6621 3.70569 11.6226 3.63537 11.5523L0.453498 8.37047C0.383225 8.30015 0.34375 8.2048 0.34375 8.10539C0.34375 8.00598 0.383225 7.91063 0.453498 7.84031L2.30975 5.98406H2.30928ZM33.6968 5.98406L35.553 7.84031C35.6232 7.91061 35.6625 8.00586 35.6625 8.10516C35.6625 8.20446 35.6232 8.2997 35.553 8.37L32.3712 11.5528C32.3363 11.5877 32.295 11.6153 32.2494 11.6342C32.2039 11.6531 32.1551 11.6628 32.1058 11.6628C32.0566 11.6628 32.0078 11.6531 31.9622 11.6342C31.9167 11.6153 31.8754 11.5877 31.8405 11.5528L29.9843 9.69656C29.9494 9.66173 29.9218 9.62038 29.9029 9.57485C29.884 9.52933 29.8743 9.48053 29.8743 9.43125C29.8743 9.38197 29.884 9.33317 29.9029 9.28765C29.9218 9.24212 29.9494 9.20077 29.9843 9.16594L33.1666 5.98406C33.2369 5.91379 33.3323 5.87431 33.4317 5.87431C33.5311 5.87431 33.6265 5.91379 33.6968 5.98406ZM3.00069 38.8125H33.0007C33.3985 38.8125 33.78 38.9705 34.0613 39.2518C34.3427 39.5331 34.5007 39.9147 34.5007 40.3125V41.4375C34.5007 41.537 34.4612 41.6323 34.3909 41.7027C34.3205 41.773 34.2251 41.8125 34.1257 41.8125H1.87569C1.77623 41.8125 1.68085 41.773 1.61052 41.7027C1.54019 41.6323 1.50069 41.537 1.50069 41.4375V40.3125C1.50069 39.9147 1.65872 39.5331 1.94003 39.2518C2.22133 38.9705 2.60286 38.8125 3.00069 38.8125ZM9.93819 23.9531V35.8125H12.9382V23.9531H9.93819Z" fill="#145DA0"/>
</svg>
