<svg width="91" height="38" viewBox="0 0 91 38" fill="none" xmlns="http://www.w3.org/2000/svg">
<path d="M64.5122 4.34432C56.771 3.95966 51.5781 10.2584 51.5781 10.2584C59.7556 6.15468 64.4445 5.8889 71.0995 8.51054C77.7544 11.1322 82.8315 7.6139 85.0914 4.34432C77.3502 10.2584 69.9455 4.61428 64.5122 4.34432Z" fill="white"/>
<path d="M67.4935 9.52027C61.3774 8.17397 58.1816 9.66452 57.3481 10.5781C61.4255 7.96241 69.4969 11.0589 73.0229 12.9341C82.9086 17.5885 88.5535 13.3027 90.1402 10.5781C92.6405 4.76976 89.0984 1.10589 87.0148 0C89.7555 8.3663 84.6096 10.452 81.7258 11.4916C77.5907 13.0783 71.292 10.5781 67.4935 9.52027Z" fill="white"/>
<path d="M55.2323 12.7942C51.6166 13.8712 47.7636 13.5314 46.2891 13.2269C50.5203 15.381 55.4247 15.1181 57.348 14.7175C59.7229 14.1297 63.581 13.1116 63.9352 13.2269C67.2272 12.8047 70.1596 13.0638 70.9552 13.2269C68.1857 11.9191 64.8328 11.6242 63.5025 11.6402C62.5024 11.2171 57.5723 12.2332 55.2323 12.7942Z" fill="white"/>
<path d="M7.51 19.34C8.59667 19.34 9.56333 19.56 10.41 20C11.2633 20.4333 11.95 21.0267 12.47 21.78C12.9967 22.5333 13.3067 23.3833 13.4 24.33H10.34C10.2467 23.83 10.0767 23.3867 9.83 23C9.58333 22.6067 9.26 22.3 8.86 22.08C8.46 21.8533 7.98 21.74 7.42 21.74C6.74667 21.74 6.16667 21.9033 5.68 22.23C5.19333 22.5567 4.82 23.0833 4.56 23.81C4.3 24.5367 4.17 25.4967 4.17 26.69C4.17 28.49 4.45667 29.7933 5.03 30.6C5.61 31.4 6.40667 31.8 7.42 31.8C7.98 31.8 8.46 31.6733 8.86 31.42C9.26 31.16 9.58333 30.82 9.83 30.4C10.0767 29.9733 10.2467 29.5067 10.34 29H13.4C13.3133 29.6867 13.1467 30.3433 12.9 30.97C12.6533 31.59 12.3033 32.1433 11.85 32.63C11.3967 33.1167 10.8133 33.5 10.1 33.78C9.38667 34.06 8.52333 34.2 7.51 34.2C6.16333 34.2 5 33.8867 4.02 33.26C3.04 32.6333 2.28333 31.7533 1.75 30.62C1.22333 29.4867 0.96 28.1633 0.96 26.65C0.96 25.13 1.22333 23.8267 1.75 22.74C2.27667 21.6467 3.03 20.8067 4.01 20.22C4.99 19.6333 6.15667 19.34 7.51 19.34ZM18.5845 34.2C17.5712 34.2 16.6879 33.9833 15.9345 33.55C15.1879 33.1167 14.6079 32.5033 14.1945 31.71C13.7879 30.9167 13.5845 29.9767 13.5845 28.89C13.5845 27.8033 13.7879 26.8533 14.1945 26.04C14.6079 25.2267 15.1879 24.5933 15.9345 24.14C16.6879 23.6867 17.5745 23.46 18.5945 23.46C19.6145 23.46 20.4979 23.6833 21.2445 24.13C21.9912 24.57 22.5679 25.1967 22.9745 26.01C23.3812 26.8233 23.5845 27.7833 23.5845 28.89C23.5845 29.93 23.3845 30.85 22.9845 31.65C22.5912 32.4433 22.0212 33.0667 21.2745 33.52C20.5345 33.9733 19.6379 34.2 18.5845 34.2ZM18.5945 32.03C19.1079 32.03 19.5212 31.88 19.8345 31.58C20.1479 31.28 20.3745 30.8867 20.5145 30.4C20.6612 29.9067 20.7345 29.37 20.7345 28.79C20.7345 28.2433 20.6679 27.7267 20.5345 27.24C20.4079 26.7533 20.1879 26.36 19.8745 26.06C19.5612 25.76 19.1345 25.61 18.5945 25.61C18.0812 25.61 17.6645 25.7533 17.3445 26.04C17.0312 26.32 16.8012 26.7033 16.6545 27.19C16.5079 27.67 16.4345 28.2033 16.4345 28.79C16.4345 29.33 16.5012 29.85 16.6345 30.35C16.7679 30.8433 16.9912 31.2467 17.3045 31.56C17.6179 31.8733 18.0479 32.03 18.5945 32.03ZM28.6845 37.42C26.8445 37.42 25.4445 37.1867 24.4845 36.72C23.5312 36.2533 23.0545 35.64 23.0545 34.88C23.0545 34.5267 23.1479 34.23 23.3345 33.99C23.5212 33.75 23.7379 33.56 23.9845 33.42C24.2379 33.2733 24.4679 33.1633 24.6745 33.09C24.8879 33.01 25.0179 32.9567 25.0645 32.93C24.9579 32.87 24.8045 32.7833 24.6045 32.67C24.4045 32.55 24.2179 32.39 24.0445 32.19C23.8779 31.9833 23.7945 31.7167 23.7945 31.39C23.7945 31.0233 23.9679 30.6833 24.3145 30.37C24.6679 30.0567 25.2012 29.84 25.9145 29.72C25.2345 29.4 24.7179 28.9667 24.3645 28.42C24.0112 27.8733 23.8345 27.3133 23.8345 26.74C23.8345 26.06 24.0479 25.4767 24.4745 24.99C24.9012 24.5033 25.4812 24.1333 26.2145 23.88C26.9545 23.6267 27.7912 23.5 28.7245 23.5C29.4379 23.5 30.0212 23.5767 30.4745 23.73C30.9279 23.8767 31.3479 24.07 31.7345 24.31C31.8879 24.25 32.0912 24.1733 32.3445 24.08C32.5979 23.98 32.8712 23.8733 33.1645 23.76C33.4579 23.64 33.7445 23.5233 34.0245 23.41C34.3045 23.29 34.5545 23.1833 34.7745 23.09L34.7645 25.35L32.9745 25.64C33.0479 25.82 33.1045 26.0133 33.1445 26.22C33.1845 26.4267 33.2045 26.5967 33.2045 26.73C33.2045 27.33 33.0279 27.89 32.6745 28.41C32.3279 28.93 31.8045 29.35 31.1045 29.67C30.4112 29.99 29.5512 30.15 28.5245 30.15C28.3979 30.15 28.2279 30.1467 28.0145 30.14C27.8079 30.1333 27.6379 30.1233 27.5045 30.11C27.1112 30.13 26.8412 30.18 26.6945 30.26C26.5479 30.34 26.4745 30.4333 26.4745 30.54C26.4745 30.7 26.6245 30.8067 26.9245 30.86C27.2245 30.9067 27.6779 30.95 28.2845 30.99C28.4979 31.0033 28.7945 31.02 29.1745 31.04C29.5545 31.06 29.9745 31.0867 30.4345 31.12C31.7012 31.2067 32.6445 31.52 33.2645 32.06C33.8912 32.5933 34.2045 33.2667 34.2045 34.08C34.2045 35.0467 33.7445 35.8433 32.8245 36.47C31.9112 37.1033 30.5312 37.42 28.6845 37.42ZM29.1545 35.79C29.9679 35.79 30.5479 35.69 30.8945 35.49C31.2412 35.29 31.4145 35.0033 31.4145 34.63C31.4145 34.3167 31.2812 34.0633 31.0145 33.87C30.7479 33.67 30.3579 33.5533 29.8445 33.52L27.4745 33.36C27.1679 33.3467 26.8945 33.3933 26.6545 33.5C26.4212 33.6067 26.2379 33.7533 26.1045 33.94C25.9779 34.1267 25.9145 34.3267 25.9145 34.54C25.9145 34.9733 26.1779 35.29 26.7045 35.49C27.2312 35.69 28.0479 35.79 29.1545 35.79ZM28.6045 28.52C29.1579 28.52 29.6012 28.37 29.9345 28.07C30.2745 27.7633 30.4445 27.35 30.4445 26.83C30.4445 26.29 30.2745 25.8567 29.9345 25.53C29.6012 25.2033 29.1579 25.04 28.6045 25.04C28.0579 25.04 27.6112 25.2033 27.2645 25.53C26.9245 25.8567 26.7545 26.29 26.7545 26.83C26.7545 27.3433 26.9179 27.7533 27.2445 28.06C27.5779 28.3667 28.0312 28.52 28.6045 28.52ZM34.9531 34V23.66H37.8231V25.12C37.9831 24.8667 38.1898 24.6233 38.4431 24.39C38.7031 24.15 39.0298 23.9533 39.4231 23.8C39.8165 23.6467 40.2831 23.57 40.8231 23.57C41.4565 23.57 42.0465 23.6933 42.5931 23.94C43.1465 24.1867 43.5931 24.5767 43.9331 25.11C44.2731 25.6367 44.4431 26.3267 44.4431 27.18V34H41.5231V27.54C41.5231 26.98 41.3565 26.56 41.0231 26.28C40.6898 26 40.2831 25.86 39.8031 25.86C39.4831 25.86 39.1731 25.9167 38.8731 26.03C38.5798 26.1433 38.3398 26.3133 38.1531 26.54C37.9665 26.7667 37.8731 27.0467 37.8731 27.38V34H34.9531ZM48.2486 23.66V34H45.4586V23.66H48.2486ZM48.2786 19.55V22.18H45.4386V19.55H48.2786Z" fill="white"/>
<path d="M55.68 23.46C56.5467 23.46 57.2933 23.6367 57.92 23.99C58.5533 24.3433 59.05 24.82 59.41 25.42C59.7767 26.02 59.9867 26.69 60.04 27.43H57.61C57.5633 27.1567 57.4667 26.8867 57.32 26.62C57.1733 26.3467 56.9667 26.1233 56.7 25.95C56.4333 25.77 56.1 25.68 55.7 25.68C55.02 25.68 54.4667 25.9433 54.04 26.47C53.62 26.99 53.41 27.7833 53.41 28.85C53.41 29.8567 53.6167 30.6567 54.03 31.25C54.4433 31.8367 55.02 32.13 55.76 32.13C56.1533 32.13 56.48 32.0333 56.74 31.84C57.0067 31.6467 57.2133 31.4167 57.36 31.15C57.5067 30.8767 57.6 30.6233 57.64 30.39H60.01C59.9633 31.1033 59.7567 31.75 59.39 32.33C59.0233 32.9033 58.5233 33.36 57.89 33.7C57.2633 34.0333 56.5267 34.2 55.68 34.2C54.72 34.2 53.8633 33.9867 53.11 33.56C52.3567 33.1333 51.7633 32.5233 51.33 31.73C50.9033 30.93 50.69 29.9767 50.69 28.87C50.69 27.8033 50.8967 26.8633 51.31 26.05C51.7233 25.2367 52.3033 24.6033 53.05 24.15C53.8033 23.69 54.68 23.46 55.68 23.46ZM60.5508 34V23.66H63.3608V26.11C63.5274 25.5833 63.7608 25.1233 64.0608 24.73C64.3674 24.33 64.7374 24.02 65.1708 23.8C65.6041 23.5733 66.0941 23.46 66.6408 23.46C66.7341 23.46 66.8208 23.4667 66.9008 23.48C66.9874 23.4867 67.0508 23.5 67.0908 23.52V26.3C67.0308 26.2733 66.9574 26.2567 66.8708 26.25C66.7908 26.2433 66.7174 26.2367 66.6508 26.23C66.0774 26.1833 65.5874 26.2 65.1808 26.28C64.7741 26.36 64.4441 26.4967 64.1908 26.69C63.9374 26.8833 63.7541 27.12 63.6408 27.4C63.5274 27.68 63.4708 27.9933 63.4708 28.34V34H60.5508ZM70.0586 34.2C69.3986 34.2 68.8053 34.0767 68.2786 33.83C67.7519 33.5833 67.3353 33.2267 67.0286 32.76C66.7219 32.2867 66.5686 31.7133 66.5686 31.04C66.5686 29.9067 66.9919 29.0467 67.8386 28.46C68.6853 27.8667 70.0219 27.56 71.8486 27.54L73.1386 27.52V26.9C73.1386 26.4267 72.9986 26.0633 72.7186 25.81C72.4453 25.55 72.0186 25.4233 71.4386 25.43C71.0119 25.4367 70.6053 25.5367 70.2186 25.73C69.8386 25.9233 69.5786 26.26 69.4386 26.74H67.0086C67.0486 25.9933 67.2653 25.38 67.6586 24.9C68.0519 24.4133 68.5853 24.0533 69.2586 23.82C69.9386 23.58 70.7086 23.46 71.5686 23.46C72.6286 23.46 73.4786 23.5933 74.1186 23.86C74.7586 24.12 75.2219 24.4967 75.5086 24.99C75.7953 25.4767 75.9386 26.0567 75.9386 26.73V34H73.4986L73.2586 32.22C72.9053 32.9667 72.4619 33.4833 71.9286 33.77C71.4019 34.0567 70.7786 34.2 70.0586 34.2ZM71.0386 32.28C71.3053 32.28 71.5619 32.2333 71.8086 32.14C72.0619 32.04 72.2853 31.91 72.4786 31.75C72.6786 31.5833 72.8386 31.3967 72.9586 31.19C73.0786 30.9833 73.1386 30.77 73.1386 30.55V29.02L72.0886 29.04C71.6019 29.0467 71.1486 29.1067 70.7286 29.22C70.3086 29.3267 69.9686 29.5033 69.7086 29.75C69.4553 29.9967 69.3286 30.33 69.3286 30.75C69.3286 31.23 69.4953 31.6067 69.8286 31.88C70.1619 32.1467 70.5653 32.28 71.0386 32.28ZM83.2553 23.66V25.69H81.0753V34H78.1553V25.69H76.2453V23.66H78.1553V22.17C78.1553 21.3367 78.3986 20.69 78.8853 20.23C79.3786 19.77 80.0753 19.54 80.9753 19.54H83.3453L83.3553 21.48H81.9953C81.622 21.48 81.3653 21.5733 81.2253 21.76C81.092 21.94 81.0253 22.24 81.0253 22.66V23.66H83.2553ZM89.8898 25.69H87.5898L87.6098 31.2C87.6098 31.4533 87.6398 31.6433 87.6998 31.77C87.7665 31.89 87.8665 31.97 87.9998 32.01C88.1398 32.0433 88.3165 32.06 88.5298 32.06H89.9198V33.86C89.7865 33.92 89.5765 33.9767 89.2898 34.03C89.0098 34.0833 88.6165 34.11 88.1098 34.11C87.2032 34.11 86.4998 33.9933 85.9998 33.76C85.5065 33.5267 85.1632 33.2 84.9698 32.78C84.7765 32.36 84.6798 31.8733 84.6798 31.32V25.69H82.9998V23.66H84.7798L85.5098 20.54H87.5898V23.65H89.8898V25.69Z" fill="white"/>
</svg>
