<svg width="36" height="34" viewBox="0 0 36 34" fill="none" xmlns="http://www.w3.org/2000/svg">
<path d="M35.625 30.125H3.375V0.875C3.375 0.66875 3.20625 0.5 3 0.5H0.375C0.16875 0.5 0 0.66875 0 0.875V33.125C0 33.3312 0.16875 33.5 0.375 33.5H35.625C35.8312 33.5 36 33.3312 36 33.125V30.5C36 30.2938 35.8312 30.125 35.625 30.125ZM7.5 21.3125C7.5 22.1081 7.81607 22.8712 8.37868 23.4338C8.94129 23.9964 9.70435 24.3125 10.5 24.3125C11.2956 24.3125 12.0587 23.9964 12.6213 23.4338C13.1839 22.8712 13.5 22.1081 13.5 21.3125C13.5 20.5169 13.1839 19.7538 12.6213 19.1912C12.0587 18.6286 11.2956 18.3125 10.5 18.3125C9.70435 18.3125 8.94129 18.6286 8.37868 19.1912C7.81607 19.7538 7.5 20.5169 7.5 21.3125ZM13.0312 10.8125C13.0312 11.4092 13.2683 11.9815 13.6903 12.4035C14.1122 12.8254 14.6845 13.0625 15.2812 13.0625C15.878 13.0625 16.4503 12.8254 16.8722 12.4035C17.2942 11.9815 17.5312 11.4092 17.5312 10.8125C17.5312 10.2158 17.2942 9.64347 16.8722 9.22151C16.4503 8.79955 15.878 8.5625 15.2812 8.5625C14.6845 8.5625 14.1122 8.79955 13.6903 9.22151C13.2683 9.64347 13.0312 10.2158 13.0312 10.8125ZM20.4375 21.5C20.4375 22.6935 20.9116 23.8381 21.7555 24.682C22.5994 25.5259 23.744 26 24.9375 26C26.131 26 27.2756 25.5259 28.1195 24.682C28.9634 23.8381 29.4375 22.6935 29.4375 21.5C29.4375 20.3065 28.9634 19.1619 28.1195 18.318C27.2756 17.4741 26.131 17 24.9375 17C23.744 17 22.5994 17.4741 21.7555 18.318C20.9116 19.1619 20.4375 20.3065 20.4375 21.5ZM27.375 6.78125C27.375 7.47744 27.6516 8.14512 28.1438 8.63741C28.6361 9.12969 29.3038 9.40625 30 9.40625C30.6962 9.40625 31.3639 9.12969 31.8562 8.63741C32.3484 8.14512 32.625 7.47744 32.625 6.78125C32.625 6.08506 32.3484 5.41738 31.8562 4.92509C31.3639 4.43281 30.6962 4.15625 30 4.15625C29.3038 4.15625 28.6361 4.43281 28.1438 4.92509C27.6516 5.41738 27.375 6.08506 27.375 6.78125Z" fill="#145DA0"/>
</svg>
